<svg width="24" height="24" viewBox="0 0 24 24" fill="none" xmlns="http://www.w3.org/2000/svg">
<path d="M23.8753 9.92982C23.7916 9.82025 23.6824 9.75507 23.5472 9.73438L20.6877 9.29699C20.5315 8.79694 20.3179 8.28665 20.0471 7.76569C20.2344 7.50529 20.5156 7.13817 20.8905 6.66406C21.2654 6.19006 21.531 5.84385 21.6874 5.62499C21.7707 5.51039 21.8121 5.39069 21.8121 5.26559C21.8121 5.11984 21.776 5.00535 21.7028 4.92189C21.328 4.39059 20.4685 3.50525 19.1247 2.26559C19.0002 2.16144 18.8696 2.1094 18.7344 2.1094C18.5781 2.1094 18.4531 2.15619 18.3593 2.24989L16.1407 3.92178C15.7135 3.70292 15.2447 3.51023 14.7345 3.34358L14.297 0.468749C14.2866 0.333351 14.2266 0.221322 14.1173 0.132771C14.0077 0.0441111 13.8804 0 13.7343 0H10.2656C9.96353 0 9.77597 0.145742 9.70313 0.437444C9.56768 0.958076 9.41657 1.92682 9.24998 3.34352C8.76032 3.50005 8.28638 3.69794 7.82808 3.93749L5.67183 2.26559C5.53644 2.16144 5.40104 2.1094 5.26564 2.1094C5.03649 2.1094 4.54437 2.48177 3.78912 3.22657C3.03387 3.97153 2.52112 4.53135 2.25005 4.90618C2.15624 5.04158 2.10951 5.16144 2.10951 5.26559C2.10951 5.39069 2.1615 5.51569 2.26565 5.64053C2.96349 6.48444 3.5209 7.20297 3.9376 7.79699C3.67715 8.27609 3.47405 8.75534 3.32836 9.23444L0.422011 9.67183C0.307464 9.69273 0.20857 9.76054 0.125164 9.87514C0.0415936 9.98963 0 10.1095 0 10.2343V13.7032C0 13.8388 0.0415936 13.9609 0.125 14.0703C0.208406 14.1796 0.317698 14.2452 0.453151 14.2658L3.31271 14.6877C3.45845 15.1981 3.67195 15.7135 3.95325 16.2342C3.76586 16.4948 3.48461 16.8618 3.10961 17.3358C2.73467 17.8101 2.4688 18.1562 2.31271 18.3749C2.22925 18.4899 2.18766 18.6094 2.18766 18.7345C2.18766 18.8697 2.22411 18.9894 2.29695 19.0935C2.7032 19.6564 3.56255 20.5314 4.87515 21.7188C4.98981 21.8334 5.12006 21.8905 5.26575 21.8905C5.42211 21.8905 5.55231 21.8439 5.6564 21.7503L7.85971 20.0782C8.28703 20.2969 8.75567 20.4897 9.26607 20.6565L9.70351 23.5314C9.71408 23.6666 9.77395 23.7786 9.88319 23.8674C9.99248 23.9562 10.1202 24 10.266 24H13.7347C14.0373 24 14.2246 23.8543 14.2977 23.5625C14.4329 23.0418 14.5839 22.0732 14.7505 20.6565C15.2401 20.5001 15.7141 20.3021 16.1724 20.0625L18.3288 21.7503C18.4746 21.844 18.6102 21.8905 18.7349 21.8905C18.964 21.8905 19.4535 21.521 20.2034 20.7812C20.9537 20.0418 21.4693 19.4792 21.7503 19.0935C21.8439 18.9894 21.8909 18.8697 21.8909 18.7345C21.8909 18.5989 21.839 18.4684 21.7345 18.3438C20.9848 17.4268 20.4274 16.7084 20.0628 16.1874C20.2711 15.8019 20.4743 15.3281 20.6722 14.7655L23.5628 14.3283C23.6876 14.3074 23.7921 14.2396 23.8752 14.125C23.9586 14.0101 23.9999 13.8903 23.9999 13.7653V10.2969C24.0002 10.1615 23.9588 10.0393 23.8753 9.92982ZM14.8284 14.8281C14.0474 15.6094 13.1047 16.0001 12.0003 16.0001C10.896 16.0001 9.9534 15.6094 9.17205 14.8281C8.39096 14.047 8.00026 13.1042 8.00026 12.0001C8.00026 10.8958 8.39074 9.95318 9.17205 9.17183C9.9534 8.39074 10.8962 8.00004 12.0003 8.00004C13.1047 8.00004 14.0475 8.39074 14.8284 9.17183C15.6096 9.95318 16.0003 10.8958 16.0003 12.0001C16.0003 13.1042 15.6097 14.0471 14.8284 14.8281Z" fill="white"/>
</svg>
