<svg width="33" height="46" viewBox="0 0 33 46" fill="none" xmlns="http://www.w3.org/2000/svg">
<path d="M26.1283 12.8275C22.8385 7.44397 19.1794 2.78464 17.2909 0.486345C17.0382 0.178555 16.659 -0.000119936 16.2587 6.04027e-08C15.8584 6.04027e-08 15.4793 0.178675 15.2265 0.486465C13.3381 2.78548 9.67902 7.44637 6.38922 12.8304C2.14967 19.7689 0 25.5056 0 29.8807C0 38.7689 7.29358 46 16.2586 46C25.2237 46 32.5172 38.7689 32.5172 29.8807C32.5174 25.5027 30.3679 19.7652 26.1283 12.8275ZM18.4897 40.0629C17.5404 40.3037 16.5549 40.4256 15.5601 40.4256C9.48597 40.4256 4.54431 35.8742 4.54431 30.2799C4.54431 28.9293 4.90378 27.3514 5.61243 25.5901C5.73213 25.2925 6.0732 25.1227 6.40943 25.1947C6.74542 25.2664 6.97102 25.5568 6.93641 25.8727C6.89501 26.2504 6.87396 26.6194 6.87396 26.9689C6.87396 33.057 11.8219 38.1551 18.3834 38.8271C18.7099 38.8606 18.9647 39.1027 18.9907 39.4045C19.0168 39.7063 18.8065 39.9825 18.4897 40.0629Z" fill="white"/>
</svg>
