<svg width="24" height="24" viewBox="0 0 24 24" fill="none" xmlns="http://www.w3.org/2000/svg">
<g clip-path="url(#clip0)">
<path d="M23.3907 1.07877C22.9636 0.901999 22.5991 0.974676 22.2969 1.29762L20.2657 3.31343C19.1511 2.2613 17.8777 1.44626 16.4454 0.868123C15.0131 0.290044 13.5312 0.000976562 12 0.000976562C10.375 0.000976562 8.823 0.31883 7.34384 0.954153C5.86458 1.58953 4.58851 2.44354 3.51565 3.51646C2.44273 4.58949 1.5885 5.86539 0.953122 7.34455C0.317798 8.82381 0 10.3756 0 12.0008C0 13.6255 0.317798 15.1777 0.953176 16.6569C1.58872 18.1362 2.44273 19.4122 3.5157 20.4852C4.58857 21.5578 5.86463 22.4119 7.3439 23.0474C8.82305 23.6828 10.3751 24.0007 12 24.0007C13.7916 24.0007 15.4952 23.6231 17.1095 22.8678C18.7239 22.1129 20.099 21.0476 21.2346 19.6725C21.3178 19.5684 21.3569 19.4512 21.3515 19.321C21.3467 19.1908 21.2969 19.084 21.2032 19.0007L19.0629 16.8445C18.9479 16.7509 18.8181 16.7041 18.6722 16.7041C18.5056 16.7249 18.3859 16.7876 18.3129 16.8917C17.5525 17.8815 16.6202 18.6469 15.516 19.189C14.412 19.7305 13.2401 20.0011 12.0005 20.0011C10.9173 20.0011 9.88344 19.7902 8.89907 19.3682C7.91459 18.9465 7.06293 18.3762 6.34431 17.6574C5.62575 16.9386 5.05544 16.0873 4.6335 15.1027C4.21166 14.1183 4.00069 13.0847 4.00069 12.0013C4.00069 10.9179 4.21183 9.88382 4.6335 8.89966C5.05528 7.9154 5.62553 7.06374 6.34431 6.34513C7.06315 5.62635 7.91459 5.05604 8.89907 4.63409C9.88322 4.21231 10.9173 4.00129 12.0005 4.00129C14.0943 4.00129 15.9121 4.71487 17.4538 6.14198L15.2971 8.29789C14.974 8.61043 14.9013 8.96988 15.0781 9.37606C15.2555 9.79275 15.5628 10.001 16.0005 10.001H23.0004C23.2712 10.001 23.5055 9.90215 23.7035 9.7042C23.9012 9.50631 24.0001 9.27197 24.0001 9.00113V2.00108C24 1.5637 23.7974 1.25641 23.3907 1.07877Z" fill="white"/>
</g>
<defs>
<clipPath id="clip0">
<rect width="24" height="24" fill="white"/>
</clipPath>
</defs>
</svg>
