<svg width="24" height="24" viewBox="0 0 24 24" fill="none" xmlns="http://www.w3.org/2000/svg">
<path d="M23.3907 1.07779C22.9636 0.901022 22.5991 0.973699 22.2969 1.29664L20.2657 3.31245C19.1511 2.26033 17.8777 1.44528 16.4454 0.867146C15.0131 0.289067 13.5312 0 12 0C10.375 0 8.823 0.317853 7.34384 0.953177C5.86458 1.58855 4.58851 2.44257 3.51565 3.51549C2.44273 4.58851 1.5885 5.86441 0.953122 7.34357C0.317798 8.82284 0 10.3747 0 11.9998C0 13.6245 0.317798 15.1767 0.953176 16.6559C1.58872 18.1353 2.44273 19.4113 3.5157 20.4842C4.58857 21.5568 5.86463 22.411 7.3439 23.0464C8.82305 23.6818 10.3751 23.9997 12 23.9997C13.7916 23.9997 15.4952 23.6221 17.1095 22.8668C18.7239 22.1119 20.099 21.0466 21.2346 19.6716C21.3178 19.5674 21.3569 19.4502 21.3515 19.32C21.3467 19.1898 21.2969 19.0831 21.2032 18.9997L19.0629 16.8435C18.9479 16.7499 18.8181 16.7031 18.6722 16.7031C18.5056 16.7239 18.3859 16.7866 18.3129 16.8908C17.5525 17.8806 16.6202 18.646 15.516 19.188C14.412 19.7295 13.2401 20.0001 12.0005 20.0001C10.9173 20.0001 9.88344 19.7892 8.89907 19.3673C7.91459 18.9455 7.06293 18.3752 6.34431 17.6565C5.62575 16.9376 5.05544 16.0863 4.6335 15.1017C4.21166 14.1173 4.00069 13.0837 4.00069 12.0003C4.00069 10.917 4.21183 9.88284 4.6335 8.89869C5.05528 7.91443 5.62553 7.06277 6.34431 6.34415C7.06315 5.62537 7.91459 5.05506 8.89907 4.63312C9.88322 4.21134 10.9173 4.00031 12.0005 4.00031C14.0943 4.00031 15.9121 4.71389 17.4538 6.141L15.2971 8.29691C14.974 8.60946 14.9013 8.9689 15.0781 9.37508C15.2555 9.79177 15.5628 10.0001 16.0005 10.0001H23.0004C23.2712 10.0001 23.5055 9.90117 23.7035 9.70323C23.9012 9.50533 24.0001 9.27099 24.0001 9.00015V2.0001C24 1.56272 23.7974 1.25543 23.3907 1.07779Z" fill="#1399EC"/>
</svg>
