<svg width="24" height="24" viewBox="0 0 24 24" fill="none" xmlns="http://www.w3.org/2000/svg">
<path d="M19.5224 15.2535C18.133 15.2535 16.9074 15.9155 16.1066 16.9292L8.67976 13.1311C8.77698 12.7685 8.84687 12.3938 8.84687 11.9994C8.84687 11.5702 8.76387 11.166 8.64805 10.7727L16.0422 6.99214C16.8385 8.05174 18.0958 8.74429 19.5235 8.74429C21.942 8.74429 23.8983 6.78791 23.8983 4.37161C23.8984 1.9575 21.942 0 19.5235 0C17.1105 0 15.152 1.9575 15.152 4.37156C15.152 4.76701 15.2219 5.14276 15.3202 5.50651L7.89438 9.30463C7.09259 8.28985 5.86477 7.6257 4.47313 7.6257C2.05683 7.6257 0.101562 9.58426 0.101562 11.9994C0.101562 14.4146 2.05688 16.3721 4.47313 16.3721C5.903 16.3721 7.15923 15.6774 7.95879 14.6167L15.3496 18.3973C15.2338 18.7895 15.1497 19.1969 15.1497 19.6273C15.1497 22.0425 17.1083 24 19.5213 24C21.9398 24 23.8962 22.0425 23.8962 19.6273C23.8973 17.21 21.9409 15.2535 19.5224 15.2535Z" fill="#1399EC"/>
</svg>
