<svg width="56" height="56" viewBox="0 0 56 56" fill="none" xmlns="http://www.w3.org/2000/svg">
<path d="M7.45042 0.5775C7.78292 0.21 8.25191 0 8.74892 0H47.2489C47.7424 0 48.2149 0.21 48.5474 0.5775C48.8764 0.9415 49.0409 1.4315 48.9919 1.925L43.7419 54.425C43.6509 55.321 42.8984 56 41.9989 56H13.9989C13.0994 56 12.3469 55.321 12.2594 54.425L7.00941 1.925C6.95692 1.4315 7.11792 0.9415 7.45042 0.5775ZM12.1089 17.773C16.5574 19.2115 22.3464 19.8765 26.8894 16.149C32.5839 11.4765 39.5629 12.2815 44.2949 13.6885L45.3134 3.5H10.6844L12.1089 17.773Z" fill="url(#paint0_linear)"/>
<defs>
<linearGradient id="paint0_linear" x1="49.0004" y1="56" x2="-4.75985" y2="15.679" gradientUnits="userSpaceOnUse">
<stop stop-color="#1399EC"/>
<stop offset="1" stop-color="#9BE3F7"/>
</linearGradient>
</defs>
</svg>
