<svg width="56" height="56" viewBox="0 0 56 56" fill="none" xmlns="http://www.w3.org/2000/svg">
<path d="M7.14858 4.19068C7.25837 4.06934 7.41323 4 7.57733 4H20.2895C20.4525 4 20.6085 4.06934 20.7183 4.19068C20.8269 4.31087 20.8812 4.47266 20.865 4.63561L19.1316 21.9704C19.1015 22.2663 18.8531 22.4905 18.5561 22.4905H9.31081C9.01381 22.4905 8.76534 22.2663 8.73645 21.9704L7.00297 4.63561C6.98563 4.47266 7.03879 4.31087 7.14858 4.19068ZM8.68676 9.86842C10.1556 10.3434 12.067 10.563 13.5671 9.33219C15.4473 7.78939 17.7517 8.05519 19.3142 8.51977L19.6505 5.15565H8.21641L8.68676 9.86842Z" fill="url(#paint0_linear)"/>
<path d="M24.7148 4.19068C24.8246 4.06934 24.9794 4 25.1436 4H37.8558C38.0187 4 38.1747 4.06934 38.2845 4.19068C38.3931 4.31087 38.4475 4.47266 38.4313 4.63561L36.6978 21.9704C36.6677 22.2663 36.4193 22.4905 36.1223 22.4905H26.877C26.58 22.4905 26.3316 22.2663 26.3027 21.9704L24.5692 4.63561C24.5519 4.47266 24.605 4.31087 24.7148 4.19068ZM26.253 9.86842C27.7218 10.3434 29.6333 10.563 31.1333 9.33219C33.0136 7.78939 35.3179 8.05519 36.8804 8.51977L37.2167 5.15565H25.7826L26.253 9.86842Z" fill="url(#paint1_linear)"/>
<path d="M42.2807 4.19068C42.3905 4.06934 42.5454 4 42.7095 4H55.4217C55.5846 4 55.7406 4.06934 55.8504 4.19068C55.9591 4.31087 56.0134 4.47266 55.9972 4.63561L54.2637 21.9704C54.2337 22.2663 53.9852 22.4905 53.6882 22.4905H44.443C44.1459 22.4905 43.8975 22.2663 43.8686 21.9704L42.1351 4.63561C42.1178 4.47266 42.1709 4.31087 42.2807 4.19068ZM43.8189 9.86842C45.2877 10.3434 47.1992 10.563 48.6992 9.33219C50.5795 7.78939 52.8839 8.05519 54.4463 8.51977L54.7826 5.15565H43.3485L43.8189 9.86842Z" fill="url(#paint2_linear)"/>
<path d="M7.14858 34.6812C7.25837 34.5598 7.41323 34.4905 7.57733 34.4905H20.2895C20.4525 34.4905 20.6085 34.5598 20.7183 34.6812C20.8269 34.8013 20.8812 34.9631 20.865 35.1261L19.1316 52.4609C19.1015 52.7568 18.8531 52.981 18.5561 52.981H9.31081C9.01381 52.981 8.76534 52.7568 8.73645 52.4609L7.00297 35.1261C6.98563 34.9631 7.03879 34.8013 7.14858 34.6812ZM8.68676 40.3589C10.1556 40.8339 12.067 41.0534 13.5671 39.8227C15.4473 38.2799 17.7517 38.5457 19.3142 39.0102L19.6505 35.6461H8.21641L8.68676 40.3589Z" fill="url(#paint3_linear)"/>
<path d="M24.7148 34.6812C24.8246 34.5598 24.9794 34.4905 25.1436 34.4905H37.8558C38.0187 34.4905 38.1747 34.5598 38.2845 34.6812C38.3931 34.8013 38.4475 34.9631 38.4313 35.1261L36.6978 52.4609C36.6677 52.7568 36.4193 52.981 36.1223 52.981H26.877C26.58 52.981 26.3316 52.7568 26.3027 52.4609L24.5692 35.1261C24.5519 34.9631 24.605 34.8013 24.7148 34.6812ZM26.253 40.3589C27.7218 40.8339 29.6333 41.0534 31.1333 39.8227C33.0136 38.2799 35.3179 38.5457 36.8804 39.0102L37.2167 35.6461H25.7826L26.253 40.3589Z" fill="url(#paint4_linear)"/>
<path d="M42.2807 34.6812C42.3905 34.5598 42.5454 34.4905 42.7095 34.4905H55.4217C55.5846 34.4905 55.7406 34.5598 55.8504 34.6812C55.9591 34.8013 56.0134 34.9631 55.9972 35.1261L54.2637 52.4609C54.2337 52.7568 53.9852 52.981 53.6882 52.981H44.443C44.1459 52.981 43.8975 52.7568 43.8686 52.4609L42.1351 35.1261C42.1178 34.9631 42.1709 34.8013 42.2807 34.6812ZM43.8189 40.3589C45.2877 40.8339 47.1992 41.0534 48.6992 39.8227C50.5795 38.2799 52.8839 38.5457 54.4463 39.0102L54.7826 35.6461H43.3485L43.8189 40.3589Z" fill="url(#paint5_linear)"/>
<defs>
<linearGradient id="paint0_linear" x1="20.8679" y1="22.4905" x2="3.11691" y2="9.17702" gradientUnits="userSpaceOnUse">
<stop stop-color="#1399EC"/>
<stop offset="1" stop-color="#9BE3F7"/>
</linearGradient>
<linearGradient id="paint1_linear" x1="38.4341" y1="22.4905" x2="20.6831" y2="9.17702" gradientUnits="userSpaceOnUse">
<stop stop-color="#1399EC"/>
<stop offset="1" stop-color="#9BE3F7"/>
</linearGradient>
<linearGradient id="paint2_linear" x1="56" y1="22.4905" x2="38.2491" y2="9.17702" gradientUnits="userSpaceOnUse">
<stop stop-color="#1399EC"/>
<stop offset="1" stop-color="#9BE3F7"/>
</linearGradient>
<linearGradient id="paint3_linear" x1="20.8679" y1="52.981" x2="3.11691" y2="39.6675" gradientUnits="userSpaceOnUse">
<stop stop-color="#1399EC"/>
<stop offset="1" stop-color="#9BE3F7"/>
</linearGradient>
<linearGradient id="paint4_linear" x1="38.4341" y1="52.981" x2="20.6831" y2="39.6675" gradientUnits="userSpaceOnUse">
<stop stop-color="#1399EC"/>
<stop offset="1" stop-color="#9BE3F7"/>
</linearGradient>
<linearGradient id="paint5_linear" x1="56" y1="52.981" x2="38.2491" y2="39.6675" gradientUnits="userSpaceOnUse">
<stop stop-color="#1399EC"/>
<stop offset="1" stop-color="#9BE3F7"/>
</linearGradient>
</defs>
</svg>
